# xmcd
#
# Track frame offsets:
#	150
#	21190
#	39409
#	62892
#	84042
#	99501
#	113046
#	137853
#	159530
#	182612
#	200574
#	216652
#	241527
#	262559
#
# Disc length: 3895 seconds
#
# Revision: 2
# Processed by: cddbd v1.5.2PL0 Copyright (c) Steve Scherf et al.
# Submitted via: audiograbber 1.83.01
#
DISCID=b30f350e
DTITLE=Steve Wingfield - Rainforest Music - Nature's Lullabies
DYEAR=2008
DGENRE=New Age
TTITLE0=All Things Bright And Beautiful
TTITLE1=Lavender's Blue
TTITLE2=Jewel Of The Earth
TTITLE3=Are You Sleeping?
TTITLE4=Nature's Lullaby
TTITLE5=Beautiful Dreamer
TTITLE6=A Light In The Forest
TTITLE7=Beyond The Leaves
TTITLE8=Rainbow Connection
TTITLE9=Nighttime On The Amazon
TTITLE10=Drifting On A Breeze
TTITLE11=Somewhere Over The Rainbow
TTITLE12=Kumbaya
TTITLE13=A Dream In Green
EXTD=YEAR: 2008
EXTT0=
EXTT1=
EXTT2=
EXTT3=
EXTT4=
EXTT5=
EXTT6=
EXTT7=
EXTT8=
EXTT9=
EXTT10=
EXTT11=
EXTT12=
EXTT13=
PLAYORDER=
